# xmcd
#
# Track frame offsets: 
#        150
#        23253
#        46962
#        65673
#        92258
#        110084
#        131515
#        153429
#        167360
#        183929
#        203587
#        219527
#        251560
#        259268
#
# Disc length: 3803 seconds
#
# Revision: 1
# Processed by: cddbd v1.5.2PL0 Copyright (c) Steve Scherf et al.
# Submitted via: ExactAudioCopy v1.3
#
DISCID=b30ed90e
DTITLE=Various Artist - The Maple Blues Revue - Live at Twisted Pines
DYEAR=2009
DGENRE=Blues
TTITLE0=The Maple Blues Band - Open Up
TTITLE1=John Mays, Dawn Tyler Watson, Chuck Jackson - Let the Good Tim
TTITLE1=es Roll
TTITLE2=John Mays - Hard Times
TTITLE3=Dawn Tyler Watson - Stay on the Ride
TTITLE4=Chuck Jackson - I Just Think of You
TTITLE5=John Mays - Blue Water
TTITLE6=Dawn Tyler Watson - One Day at a Time
TTITLE7=John Mays - Shame on Ya
TTITLE8=Chuck Jackson - Changed My Ways
TTITLE9=Dawn Tyler Watson - Up to the Mountain
TTITLE10=Chuck Jackson - Angel in My Bed
TTITLE11=John Mays - Give it Up
TTITLE12=Band Introduction
TTITLE13=John Mays, Dawn Tyler Watson, Chuck Jackson - Wang Dang Doodl
TTITLE13=e
EXTD=
EXTT0=
EXTT1=
EXTT2=
EXTT3=
EXTT4=
EXTT5=
EXTT6=
EXTT7=
EXTT8=
EXTT9=
EXTT10=
EXTT11=
EXTT12=
EXTT13=
PLAYORDER=
